<?xml version="1.0" encoding="utf-8"?>
<!-- Generator: Adobe Illustrator 27.5.0, SVG Export Plug-In . SVG Version: 6.00 Build 0)  -->
<svg version="1.1" id="Layer_1" xmlns="http://www.w3.org/2000/svg" xmlns:xlink="http://www.w3.org/1999/xlink" x="0px" y="0px"
	 viewBox="0 0 1200 1309.091" style="enable-background:new 0 0 1200 1309.091;" xml:space="preserve">
<rect style="fill:#FFFFFF;" width="1200" height="1309.091"/>
<g>
	<path style="fill:#BAF2FF;" d="M266.348,781.19c-57.652,81.511-122.61,142.745-97.839,251.555
		c9.279,40.763,25.064,81.607,30.602,123.055c2.731,20.444,13.352,63.532,10.602,89.687h815.108
		c-46.2-49.479-68.843-138.821-65.742-201.187c3.73-75.052,55.033-126.461,86.973-190.045
		c16.085-32.018,27.276-70.637,23.827-106.809c-4.011-42.061-35.332-76.579-52.442-114.571
		c-37.073-82.317-47.214-158.82-46.065-246.86c2.033-155.785-122.255-208.584-259.153-220.717
		c-77.038-6.828-154.375-5.188-230.709-16.065c-67.569-9.628-133.095-23.878-201.499-27.001
		c-71.132-3.247-128.144,16.683-145.251,89.207c-16.273,68.993,7.471,126.866,39.983,187.653
		C238.366,518.036,361.522,646.632,266.348,781.19z"/>
	<path style="fill:#A7A9A9;" d="M58.184,1244.839c0,10.286,242.58,18.625,541.816,18.625c299.237,0,541.816-8.339,541.816-18.625
		c0-10.287-242.579-18.625-541.816-18.625C300.764,1226.214,58.184,1234.552,58.184,1244.839z"/>
	<g>
		<g>
			<g>
				<g>
					<path style="fill:#FF9A72;" d="M388.56,1234.138c5.697-12.58,2.875-33.623,3.59-49.873c0.507-11.563,1.663-42.012,3.105-51.241
						l-25.59,28.101c-0.972,7.817-2.18,39.512-0.302,69.973L388.56,1234.138z"/>
					<path style="fill:#FFFFFF;" d="M387.619,1206.951c6.405-9.248,12.205,8.839,13.651,13.01c1.717,4.958,10.914,6.681,14.18,9.867
						c5.754,5.618,16.094,6.912,11.29,19.99c-21.06,2.07-47.565,1.577-60.938-2.581c-5.755-1.79-2.26-16.863,1.512-31.426
						C369.239,1208.377,375.362,1224.656,387.619,1206.951z"/>
					<g>
						<path style="fill:#006B6B;" d="M458.489,716.664c-3.552,6.229-9.887,10.779-10.597,19.695
							c-5.039,63.18-19.126,208.239-29.931,317.792c-7.376,74.869-13.229,133.15-13.606,137.394
							c-2.844,2.537-20.938-0.665-24.709-0.787c-2.808-0.088-16.676,1.453-18.793-0.595c-1.295-14.42-13.492-438.508-14.017-472.185
							c-0.01-0.42-0.01-0.866-0.018-1.313H458.489z"/>
					</g>
				</g>
				<g>
					<g>
						<path style="fill:#FF9A72;" d="M514.297,1234.814c5.365-12.726,1.988-33.688,2.274-49.951
							c0.203-11.572,0.555-42.04,1.753-51.305l-24.841,28.766c-0.766,7.84-1.137,39.557,1.543,69.957L514.297,1234.814z"/>
						<path style="fill:#FFFFFF;" d="M512.641,1207.66c6.158-9.413,12.434,8.514,13.989,12.646
							c1.846,4.911,11.087,6.391,14.435,9.49c5.899,5.463,16.271,6.484,11.812,19.685c-20.997,2.625-47.506,2.832-60.985-0.973
							c-5.8-1.638-2.703-16.798,0.683-31.455C494.304,1209.571,500.855,1225.683,512.641,1207.66z"/>
						<g>
							<path style="fill:#006B6B;" d="M527.531,1075.674c-2.746,60.862-4.838,106.884-4.838,114.75l-43.45,2.528
								c-10.037-55.306-27.114-298.691-34.456-406.048c-1.925-28.138-3.176-46.924-3.457-50.546
								c-0.279-3.71,1.541-18.61,1.313-22.311c-0.682-11.217-10.36-5.399-9.72-16.353c0.446-7.665,4.567-16.493,5.354-24.315
								c0.21-2.056,0.193-4.042-0.193-5.923l4.113,1.478l11.208,4.034l86.349,31.883
								C543.227,726.306,533.709,938.622,527.531,1075.674z"/>
						</g>
					</g>
					<path style="fill:#00504E;" d="M527.531,1075.674c-2.746,60.862-4.838,106.884-4.838,114.75l-43.45,2.528
						c-10.037-55.306-27.114-298.691-34.456-406.048c6.527-16.922,2.127-41.919,10.684-57.012
						c4.182,54.886,8.811,109.736,14.803,164.92c3.728,34.429,8.252,68.544,14.429,102.37c4.392,24,7.542,52.812,26.178,71.186
						C516.778,1074.178,522.168,1075.928,527.531,1075.674z"/>
				</g>
				<path style="fill:#00504E;" d="M417.961,1054.15c-7.376,74.869-13.229,133.15-13.606,137.394
					c-2.844,2.537-20.938-0.665-24.709-0.787c-2.808-0.088-16.676,1.453-18.793-0.595c-1.295-14.42-13.492-438.508-14.017-472.185
					c-0.01-0.42-0.01-0.866-0.018-1.313h34.683c-9.275,51.333-15.468,103.551-15.468,156.94c0,29.293,0.279,58.735,1.749,87.495
					c1.374,26.756-5.266,63.469,11.811,85.833C388.291,1058.306,404.889,1060.082,417.961,1054.15z"/>
			</g>
			<g>
				<path style="fill:#1F100D;" d="M481.514,262.952c-1.245-9.823-7.077-18.22-8.42-27.791l-25.689-14.272
					c-2.404,26.741-34.024,40.577-52.644,57.803c-26.929,24.916-6.265,51.855,11.293,74.666
					c-4.715-22.867,15.923-39.056,35.643-44.027c14.371-3.622,23.283-7.037,32.269-19.979
					C479.561,281.292,482.81,273.185,481.514,262.952z"/>
				<path style="fill:#FFA471;" d="M492.162,720.599c4.209-44.862,13.128-115.503,13.194-143.854
					c0.159-68.225-13.31-86.828-3.31-134.863c0.411-1.973,1.201-2.734,2.132-2.957l59.723,9.101
					c3.691,50.784-0.961,80.873-1.56,99.342c-1.289,39.876-27.227,126.219-45.628,173.232H492.162z"/>
				<path style="fill:#009CA9;" d="M571.376,448.341c-0.587,9.555-6.299,10.64-10.99,19.853c-0.166,0.306-0.332,0.604-0.481,0.91
					c-0.149,0.245-0.272,0.49-0.394,0.735c-2.633,4.734-7.008,11.541-7.945,15.846c-0.621,2.87-1.154,6.693-1.618,11.322
					c-24.376,89.508-1.007,195.158-1.007,230.156c-68.246,18.374-128.329,15.767-208.668,6.562
					c3.938-68.238,30.817-136.038,32.811-174.535c1.032-20.028-0.857-43.652-3.857-67.791
					c-8.427-67.608-25.628-139.292-11.891-147.438c16.379-9.712,69.069-27.176,83.251-32.452c0,0,100.139,27.351,107.042,37.693
					c4.611,6.921,10.386,21.708,9.188,28.874C555.416,386.369,572.39,431.884,571.376,448.341z"/>
				<path style="fill:#FFA471;" d="M397.328,724.536c-4.209-44.861-13.128-115.503-13.194-143.854
					c-0.159-68.225,13.309-86.828,3.31-134.863c-0.41-1.973-1.201-2.734-2.131-2.958l-59.723,9.101
					c-3.69,50.785,0.96,80.874,1.559,99.342c1.29,39.877,27.227,126.219,45.628,173.232H397.328z"/>
				<path style="fill:#009CA9;" d="M536.482,492.822c-8.63-21.957-17.066-43.821-23.246-66.659
					c-2.783-10.282-4.786-21.723-5.963-32.217c-1.121-10.007,1.538-20.863-2.225-30.11l0.979-18.833
					c10.801-10.826,31.842-3.372,37.892,0.942c12.55,8.947,19.998,27.674,26.222,41.363c12.117,26.654,21.983,55.561,30.14,84.322
					L536.482,492.822z"/>
				<g>
					<path style="fill:#FFA471;" d="M494.224,416.032c-32.821-63.9-59.881-82.621-68.695-103.273
						c8.168-6.416,13.193-12.79,18.322-21.366c1.837-3.066,3.618-6.182,5.331-9.342c6.336-11.663,11.627-23.814,15.932-36.361
						c0.088-0.262,0.174-0.532,0.262-0.795l45.603,36.673c-7.835,11.852-16.232,30.471-12.606,43.846
						c0.493,1.829,12.334,7.745,12.319,8.052C510.444,337.505,496.401,363.506,494.224,416.032z"/>
					<path style="fill:#E07F4F;" d="M506.317,331.425c-1.413,0.148-6.576,0.334-8.055,0.375
						c-25.208,0.646-44.127-21.974-54.411-40.406c1.837-3.066,3.618-6.182,5.331-9.342c6.336-11.663,11.627-23.814,15.932-36.361
						c0.088-0.262,0.174-0.532,0.262-0.795l45.603,36.673c-7.835,11.852-12.954,25.398-9.329,38.774
						C502.144,322.172,504.425,329.272,506.317,331.425z"/>
				</g>
				<path style="fill:#008287;" d="M560.385,468.195c-0.166,0.306-0.332,0.604-0.481,0.91c-0.149,0.245-0.272,0.49-0.394,0.735
					c-1.934,3.736-3.369,7.578-4.664,11.296c-1.81,5.224-3.446,10.517-4.899,15.872c-24.376,89.508-1.007,195.158-1.007,230.156
					c-68.246,16.755-128.329,14.953-208.668,6.562c3.938-62.209,32.637-137.009,36.748-171.919
					c2.625-22.312-4.794-57.721-7.794-79.726c1.259-6.763,2.134-13.737,2.554-21.008c1.443-25.207-3.737-50.502-2.984-74.957
					c-0.035-0.035-0.061-0.07-0.088-0.104c0.298,0.323,1.146,1.286,1.47,1.417c4.454,1.715,11.558,21.97,14.402,26.083
					c8.075,11.655,17.875,48.796,29.187,57.738c21.288,16.816,47.24,18.374,82.675,18.374
					C527.164,489.622,539.755,480.435,560.385,468.195z"/>
				<path style="fill:#009CA9;" d="M375.243,495.288c4.452-23.16,8.748-46.193,10.935-69.742c0.984-10.603,1.125-22.19,0.676-32.689
					c-0.429-10.013-4.28-20.126-2.293-29.905l-4.913-22.935c-10.964-8.511-32.064,9.043-36.746,14.436
					c-9.709,11.182-12.912,29.872-15.748,44.621c-6.56,34.121-7.571,58.063-10.651,87.793L375.243,495.288z"/>
				<g>
					<g>
						<path style="fill:#006695;" d="M450.826,410.221c-1.576,9.927-10.901,16.692-20.827,15.117
							c-9.923-1.576-16.692-10.897-15.117-20.827c0.1-0.637,0.234-1.258,0.397-1.869c2.379-8.889,11.14-14.723,20.425-13.249
							c9.291,1.477,15.813,9.736,15.321,18.923C450.992,408.95,450.928,409.585,450.826,410.221z"/>
						<path style="fill:#FFFFFF;" d="M451.026,408.316c-2.38,8.893-11.14,14.727-20.428,13.253
							c-9.286-1.475-15.811-9.735-15.319-18.927c2.379-8.889,11.14-14.723,20.425-13.249
							C444.996,390.87,451.518,399.129,451.026,408.316z"/>
						<g>
							<path style="fill:#584F4F;" d="M446.956,405.145c-1.047,6.595-7.243,11.091-13.838,10.045
								c-6.595-1.048-11.095-7.245-10.045-13.839c1.047-6.596,7.242-11.092,13.838-10.046
								C443.507,392.351,448.002,398.547,446.956,405.145z"/>
							<path style="fill:#393333;" d="M441.841,404.333c-0.6,3.77-4.142,6.341-7.912,5.742c-3.77-0.598-6.342-4.142-5.742-7.912
								c0.597-3.77,4.141-6.343,7.91-5.741C439.867,397.019,442.441,400.561,441.841,404.333z"/>
						</g>
					</g>
					<path style="fill:#393333;" d="M421.747,313.391c6.408-9.381,13.075-9.839,15.157-12.007c0.751,1.719-5.249,7-6.512,8.604
						c-0.033,0.041,0.077,0.068,0.114,0.104c-2.078,2.267-3.876,4.717-4.886,7.258c-5.352,13.475-1.775,29.203,1.68,42.69
						c3.86,15.085,9.247,30.14,10.48,45.756c0.263,3.304-4.845,3.876-5.107,0.574c-0.7-8.872-2.88-17.557-5.197-26.127
						c-4.078-15.076-9.358-30.533-9.583-46.306C417.795,326.934,417.753,319.238,421.747,313.391z"/>
				</g>
				<g>
					<path style="fill:#393333;" d="M522.004,346.683c-1.107-3.893-3.196-7.502-5.429-10.848c-2.636-3.947-4.961-5.19-8.216-8.638
						c-1.838-1.946-3.909-3.096-5.98-4.812c0.256,2.113,1.75,5.833,3.355,8.457c0.862,0.842,4.956,3.762,7.348,7.305
						c2.063,3.053,3.942,6.313,4.954,9.878C518.777,350.618,522.744,349.277,522.004,346.683z"/>
					<g>
						<g>
							<g>
								<path style="fill:#FFFFFF;" d="M524.571,437.05c-4.584,3.365-7.972,3.139-10.118,2.215
									c-4.898-2.097-7.987-9.359-8.93-21.004c-0.57-7.045,0.034-17.904,0.475-25.834c0.217-3.874,0.439-7.88,0.315-8.542
									c0.037,0.193,0.239,0.541,0.633,0.66l0.613-2.26c0.955,0.284,0.918,1.433,0.844,3.721c-0.057,1.612-0.18,3.863-0.328,6.466
									c-0.434,7.854-1.036,18.612-0.478,25.48c0.858,10.582,3.584,17.375,7.674,19.132c2.871,1.23,6.518-0.128,10.549-3.937
									l1.303,1.76C526.235,435.742,525.383,436.453,524.571,437.05z"/>
								<path style="fill:#171111;" d="M531.595,430.494c1.048,1.87-0.02,4.797-2.39,6.541c-2.373,1.739-5.144,1.63-6.196-0.239
									c-1.049-1.87,0.019-4.801,2.391-6.54C527.77,428.515,530.542,428.623,531.595,430.494z"/>
							</g>
							<g>
								<path style="fill:#FFFFFF;" d="M544.302,430.052c5.322,0.593,8.294-1.417,9.899-3.388
									c3.671-4.502,3.881-12.683,0.609-23.675c-1.979-6.65-6.369-16.113-9.572-23.018c-1.565-3.377-3.186-6.869-3.308-7.533
									c0.035,0.196-0.026,0.619-0.336,0.933l-1.352-1.708c-0.762,0.762-0.32,1.776,0.555,3.799
									c0.623,1.423,1.53,3.381,2.583,5.652c3.175,6.842,7.525,16.215,9.451,22.697c2.974,9.99,2.925,17.564-0.138,21.32
									c-2.151,2.64-5.919,3.355-10.899,2.071l-0.549,2.273C542.34,429.76,543.36,429.951,544.302,430.052z"/>
								<path style="fill:#171111;" d="M535.656,427.885c-0.285,2.244,1.716,4.312,4.468,4.617c2.752,0.307,5.212-1.264,5.496-3.511
									c0.284-2.248-1.715-4.31-4.467-4.619C538.402,424.068,535.94,425.639,535.656,427.885z"/>
							</g>
							<g>
								<path style="fill:#393333;" d="M547.197,380.951c-0.129,0.069-0.289,0.089-0.38,0.207c-1.87,2.39-2.824,2.179-4.125,3.588
									c-0.939-2.263-1.947-4.285-3.002-6.076c-10.112-17.092-25.005-12.969-29.459,6.183c-0.639,2.741-1.061,5.788-1.227,9.127
									c-2.667-0.185-2.143-0.076-4.822-0.161c-0.148-12.87,6.007-45.353,14.016-48.977
									C528.08,340.371,541.257,369.749,547.197,380.951z"/>
							</g>
							<g style="opacity:0.5;">
								<g>
									<path style="fill:#006695;" d="M539.691,378.67c-10.112-17.092-25.005-12.969-29.459,6.183
										c0.878-11.329,4.745-33.09,9.405-35.199C526.264,346.65,538.872,375.336,539.691,378.67z"/>
								</g>
								<path style="fill:#FF9800;" d="M540.606,382.38c0.069,0.081,0.12,0.193,0.154,0.322
									C541.301,385.056,541.088,384.303,540.606,382.38z"/>
							</g>
						</g>
					</g>
				</g>
				<g>
					<path style="fill:#3B211C;" d="M538.434,167.444c-21.874-26.699-44.239-6.764-69.319-10.777l12.039,21.21
						c15.902-1.623,34.123-2.811,45.283,10.591c10.28,12.344,10.965,29.75,10.639,45.317c0.292-0.582,0.732-1.708,0.938-2.247
						c2.574-6.759,6.44-14.369,9.268-24.305C551.245,193.308,547.918,179.023,538.434,167.444z"/>
					<path style="fill:#FFA471;" d="M537.638,236.35c-0.631-13.384,3.351-29.334-1.402-42.095
						c-2.337-6.276-9.707-13.596-14.845-17.891c-8.07-6.743-16.479-14.543-28.233-13.867c-10.292,0.593-23.527,4.998-32.731,10.216
						c-25.266,14.32-32.541,50.022-25.069,75.169c3.476,11.7,5.03,26.325,13.81,36.019c7.586,8.373,18.858,17.001,28.565,22.699
						c10.926,6.414,25.122,12.985,35.371,3.378c9.053-8.487,12.833-20.898,18.162-31.733
						C537.703,265.156,538.337,251.193,537.638,236.35z"/>
					<g>
						<path style="fill:#241917;" d="M487.117,243.315c-0.339,3.92-5.706,6.658-11.993,6.118c-6.286-0.541-11.107-4.157-10.77-8.077
							c0.337-3.92,5.706-6.658,11.99-6.118C482.631,235.779,487.454,239.395,487.117,243.315z"/>
						<path style="fill:#E07F4F;" d="M461.466,244.425l0.611,0.053c8.951,3.153,19.396,4.834,28.25-0.188
							C486.559,229.75,461.873,228.111,461.466,244.425z"/>
					</g>
					<g>
						<path style="fill:#241917;" d="M536.112,241.84c-0.202,3.929-4.036,6.926-8.567,6.694c-4.532-0.232-8.042-3.605-7.839-7.533
							c0.198-3.929,4.035-6.926,8.568-6.694C532.802,234.538,536.314,237.911,536.112,241.84z"/>
						<path style="fill:#E07F4F;" d="M517.211,244.184l0.453,0.023c6.637,2.716,14.362,3.892,20.825-1.547
							C535.534,228.326,517.313,227.877,517.211,244.184z"/>
					</g>
					<path style="fill:#E07F4F;" d="M499.672,268.289l-0.327,0.579c5.42,6.245,13.914,4.776,16.227-3.602
						C510.475,269.244,505.813,268.604,499.672,268.289z"/>
					<g>
						<path style="fill:#241917;" d="M461.947,227.031c0.01-0.011,0.022-0.021,0.035-0.033c-0.018,0.004-0.031,0.006-0.05,0.008
							C461.816,227.107,461.823,227.115,461.947,227.031z"/>
						<path style="fill:#241917;" d="M491.314,224.134c0,0-16.521-9.764-29.332,2.863c5.8-1.016,9.801-1.002,15.764,0.316
							C481.813,228.211,491.159,231.447,491.314,224.134z"/>
					</g>
					<path style="fill:#3B211C;" d="M517.197,182.178c-1.355,1.844-2.77,3.527-4.222,5.062
						c-19.998,21.132-48.382,15.141-54.087,29.709c-7.27,18.581-15.563,33.921-34.05,41.038c5.795-12.398-3.141-26.04-4.904-37.96
						c-1.889-12.769-0.269-28.978,6.863-39.993c0.026-0.044,0.059-0.083,0.091-0.128c7.014-10.775,19.903-22.444,32.397-24.73
						c14.893-2.723,28.449-0.068,39.962,6.495c10.113,5.76,15.09,14.234,16.996,18.241c0.146,0.32,0.278,0.606,0.386,0.864
						C517.024,181.664,517.197,182.178,517.197,182.178z"/>
					<g>
						<path style="fill:#241917;" d="M540.579,224.807c-0.01-0.009-0.023-0.018-0.035-0.028c0.014,0,0.027,0.001,0.043,0.001
							C540.704,224.861,540.702,224.871,540.579,224.807z"/>
						<path style="fill:#241917;" d="M515.128,226.482c0,0,12.338-12.162,25.416-1.703c-5.106-0.106-8.502,0.525-13.338,2.74
							C523.909,229.031,516.531,233.659,515.128,226.482z"/>
					</g>
					<g>
						<path style="fill:#FF3C2B;" d="M491.61,286.058c4.169,2.367,8.857,8.121,13.889,8.161c4.952,0.041,9.014-6.133,9.153-9.962
							L491.61,286.058z"/>
						<g>
							<path style="fill:#FF2420;" d="M517.896,284.511c-2.925-2.206-1.851-4.742-5.524-3.724c-3.857,1.069-5.081,0.89-8.286,0.246
								c-4.318-0.868-12.333,2.905-16.623,4.515c5.617,0.885,13.191,1.084,15.443,1.089
								C507.556,286.644,513.949,286.404,517.896,284.511z"/>
						</g>
					</g>
					<g>
						<path style="fill:#241917;" d="M509.162,176.63c-0.033-0.015-0.067-0.03-0.099-0.045c0.01,0.041,0.022,0.081,0.033,0.123
							C509.469,176.992,509.49,176.967,509.162,176.63z"/>
					</g>
					<path style="fill:#3B211C;" d="M532.494,196.046c-3.451-4.516-6.771-13.263-9.204-18.678
						c-6.57-14.606-14.081-20.262-29.723-21.501l-11.156,19.689c18.324-1.87,25.388-3.375,32.43,12.847
						c2.568,5.914,10.531,17.408,17.926,17.321c7.957-0.095,10.764-5.24,10.743-11.959
						C542.621,199.097,536.61,201.433,532.494,196.046z"/>
					<g>
						<path style="fill:#1F100D;" d="M517.61,178.637c-0.007,0.019-0.015,0.036-0.025,0.055c0.016-0.014,0.03-0.026,0.044-0.04
							C517.81,178.398,517.804,178.392,517.61,178.637z"/>
						<path style="fill:#1F100D;" d="M517.584,178.693c-0.312,0.713-0.623,1.404-0.955,2.084c-1.119,2.341-2.336,4.488-3.654,6.464
							c-19.998,21.132-48.382,15.141-54.087,29.709c-7.27,18.581-15.563,33.921-34.05,41.038c5.795-12.398-3.141-26.04-4.904-37.96
							c-1.889-12.769-0.269-28.978,6.863-39.993c0.026-0.044,0.059-0.083,0.091-0.128c-3.501,11.559-2.09,22.511-0.937,34.744
							c1.125-12.705,10.878-32.443,23.73-36.849c-8.621,7.463-7.303,20.852-8.195,31.044c12.603-29.729,54.078-11.437,74.757-28.933
							C516.699,179.525,517.148,179.115,517.584,178.693z"/>
					</g>
					<g>
						<path style="fill:#FFA471;" d="M420.731,257.954c3.423,10.871,10.894,18.207,16.688,16.383
							c5.794-1.824,7.716-12.117,4.296-22.988c-3.422-10.872-10.895-18.207-16.688-16.383
							C419.232,236.79,417.308,247.083,420.731,257.954z"/>
						<path style="fill:#E07F4F;" d="M422.82,251.05c-3.995-11.718,11.345-14.986,14.913-2.45c-7.787-2.881-4.37,12.41,2.542,12.547
							l1.234-0.389c-3.934,14.48-23.276-10.22-10.42-15.112C427.105,243.899,423.102,246.53,422.82,251.05z"/>
					</g>
				</g>
			</g>
		</g>
		<g>
			<path style="fill:#FFFFFF;" d="M645.8,291.421c-45.228,8.893-36.336,111.154-45.228,157.839
				c-4.862,25.519,9.249,14.22,6.733,39.876c-1.466,14.939-7.838,49.6,11.21,55.573c41.826,13.116,53.226-98.515,53.363-121.659
				L645.8,291.421z"/>
			<g>
				<path style="fill:#FFFFFF;" d="M596.302,421.944c7.882,15.384-10.606,114.362,0.262,132.964
					c10.267,17.571,30.159,9.965,41.361,0.202c16.04-13.979,19.999-38.54,29.792-57.531L596.302,421.944z"/>
				<path style="fill:#FFFFFF;" d="M594.54,420.078l1.762,1.866C595.817,420.999,595.237,420.354,594.54,420.078z"/>
			</g>
			<g>
				<path style="fill:#FFA471;" d="M559.445,394.795c-21.764-3.751,5.101,28.784,9.174,24.596l13.621,3.556
					C586.502,415.351,568.97,396.436,559.445,394.795z"/>
				<path style="fill:#FFA471;" d="M592.758,398.437c-7.57-4.301-14.264,13.866-17.797,16.749l12.425,3.662
					C591.542,418.016,599.481,402.257,592.758,398.437z"/>
				<path style="fill:#171E21;" d="M594.474,436.338c0.486,0.971,0.092,2.152-0.879,2.638l0,0c-0.971,0.486-2.152,0.093-2.639-0.878
					l-44.872-89.68c-0.485-0.971-0.092-2.152,0.878-2.638l0,0c0.972-0.486,2.154-0.092,2.639,0.879L594.474,436.338z"/>
			</g>
			<path style="fill:#EAE1DF;" d="M630.583,347.335c-0.221,19.544-4.571,39.28-3.582,59.935c1.048,21.88-1.765,45.263,0.247,66.445
				l13.339,3.335C640.588,432.836,630.583,391.748,630.583,347.335z"/>
			<g>
				<g>
					<path style="fill:#FF9A72;" d="M686.04,1149.475c0.563,9.242,5.223,25.128,7.562,36.305c1.614,7.706,1.542,34.889,6.178,39.808
						c17.165,18.215,17.587-58.709,17.314-67.081L686.04,1149.475z"/>
					<path style="fill:#FFFFFF;" d="M716.245,1205.627l-15.441-1.946c-7.309-9.843-10.682,1.617-13.805,6.379
						c-3.709,5.651-10.939,9.823-16.316,13.098c-9.484,5.771-32.934,10.109-29.776,26.582c18.944,2.031,58.31,2.514,77.964-0.239
						c8.457-1.187,1.768-8.652-0.197-21.726C717.325,1218.779,717.962,1214.375,716.245,1205.627z"/>
					<path style="fill:#005B89;" d="M669.777,999.521c0.42,13.034,3.27,41.469,6.65,72.093
						c5.27,47.751,11.828,100.839,12.464,109.176l28.135,0.253c7.496-34.956,13.107-71.293,19.48-105.777
						c3.601-19.496,7.288-39.327,10.025-59.328c5.134-37.462,6.954-75.531-1.3-113.177c-6.168-28.139,3.765-108.278,4.268-137.997
						c0.501-29.35-12.927-17.44-1.094-43.793l-79.029,42.999c2.247,21.949,2.633,44.027,4.423,66.309
						C679.263,898.028,667.524,930.235,669.777,999.521z"/>
					<path style="fill:#004C6F;" d="M676.427,1071.614c5.27,47.751,11.828,100.839,12.464,109.176l28.135,0.253
						c7.496-34.956,13.107-71.293,19.48-105.777c3.601-19.496,7.288-39.327,10.025-59.328c-2.055,6.174-4.409,12.224-7.086,18.113
						c-11.255,24.756-32.038,43.998-58.398,38.706C679.532,1072.45,677.986,1072.074,676.427,1071.614z"/>
				</g>
				<g>
					<path style="fill:#FF9A72;" d="M792.987,1149.435c0.259,9.261,4.401,25.321,6.372,36.59c1.358,7.765,0.401,34.927,4.874,40.031
						c16.56,18.899,19.491-57.955,19.491-66.329L792.987,1149.435z"/>
					<path style="fill:#FFFFFF;" d="M811.151,1198.042c-10.896-1.215-12.922,8.91-14.856,13.72
						c-2.297,5.718-6.031,7.463-9.593,10.835c-6.279,5.943-22.275,10.732-19.318,27.112c13.184,1.664,46.197,2.906,59.649-0.22
						c5.787-1.346,2.049-5.72-3.075-20.007C820.937,1221.049,821.398,1199.185,811.151,1198.042z"/>
					<path style="fill:#005B89;" d="M763.003,837.043c9.007,67.281-1.012,100.199,4.873,169.215
						c1.485,17.412,6.274,42.221,10.936,66.647c4.235,22.203,8.368,44.091,9.816,59.82c1.159,12.597,2.659,38.059,4.416,51.655
						h31.542c5.644-35.389,9.344-72.031,13.887-106.872c3.065-23.47,6.221-47.424,7.749-71.476
						c2.16-33.927,1.069-68.052-8.104-101.297c-7.635-27.69-3.729-98.555-4.789-128.251c-1.043-29.328-12.021-26.357-1.597-53.439
						l-76.626,48.095C758.501,792.902,760.045,814.916,763.003,837.043z"/>
					<path style="fill:#004C6F;" d="M778.812,1072.905c4.235,22.203,8.368,44.091,9.816,59.82
						c1.159,12.597,2.659,38.059,4.416,51.655h31.542c5.644-35.389,9.344-72.031,13.887-106.872
						c3.065-23.47,6.221-47.424,7.749-71.476C830.892,1043.477,806.218,1077.767,778.812,1072.905z"/>
				</g>
				<path style="fill:#FFFFFF;" d="M857.3,575.221c1.768,120.269,6.169,249.097,2.941,252.971
					c-2.756,3.312-83.371,18.341-143.407,1.667c-4.245-21.364-12.8-65.92-14.916-86.122c-0.045,0.195-0.089,0.388-0.129,0.583
					c-1.127,5.141-2.161,11.276-3.083,17.951c-3.207,23.065-5.135,52.526-5.213,69.255c-21.676,8.337-35.365,2.707-46.691,1.667
					c-2.178-24.821-4.607-79.764-6.774-145.312c-0.5-14.962-0.984-30.473-1.445-46.307c-4.396-150.42-7.036-329.75-2.702-339.065
					c4.965-10.654,19.464-15.439,28.923-21.369c9.876-6.18,19.525-13.495,29.15-19.731l72.295-19.941l2.962-0.817
					c9.287,5.752,20.096,10.493,29.628,14.339c8.437,3.401,15.879,6.096,20.387,8.17c13.865,6.374,30.828,11.632,41.682,23.342
					c21.704,23.404,4.291,66.098-0.166,96.121c-3.908,26.316-4.535,86.511-3.908,154.422
					C856.95,549.561,857.111,562.343,857.3,575.221z"/>
				<g>
					<path style="fill:#FFA471;" d="M780.238,248.044c-10.86,15.706-21.593,31.956-32.463,48.174
						c-14.311,21.342-28.883,42.633-44.367,62.564c-7.27-17.596-12.294-37.648-15.696-57.862
						c-1.289-7.642-2.345-15.312-3.202-22.881c-0.994-8.704-1.716-17.273-2.229-25.521l45.658-48.147l15.479-16.323
						c-0.807,1.801-1.156,4.107-1.156,6.697c0.005,4.124,0.916,8.976,2.316,13.684c1.912,6.447,4.748,12.627,7.455,16.329
						C759.151,234.482,771.006,241.43,780.238,248.044z"/>
					<path style="fill:#E07F4F;" d="M723.13,282.251c-16.483,15.322-29.599,8.842-38.621-4.213
						c-0.994-8.704-1.716-17.273-2.229-25.521l45.658-48.147l14.323-9.626l0.044-0.027c1.106,2.601,1.934,7.475,2.272,13.711
						C745.713,229.287,741.316,265.35,723.13,282.251z"/>
				</g>
				<path style="fill:#188AAF;" d="M747.774,296.218c-14.311,21.342-28.883,42.633-44.367,62.564
					c-7.27-17.596-12.294-37.648-15.696-57.862c10.305,2.673,23.877,2.851,31.274,2.434
					C729.334,302.77,738.586,299.574,747.774,296.218z"/>
				<path style="fill:#EAE1DF;" d="M799.228,253.99c-0.128,0.328-0.261,0.661-0.389,1.001
					c-4.729,12.116-11.498,30.039-17.335,41.471c-2.973,5.83-5.786,14.767-12.31,15.901c-5.347,0.933-12.838-5.214-18.196-5.725
					c-0.65,12.838,11.271,17.229,0.706,28.211c-8.837,9.187-40.533,25.774-44.967,37.715
					c-14.451,38.904-14.25,242.838-4.948,371.756c-1.127,5.141-2.161,11.276-3.083,17.951
					c-19.452-141.922-7.582-374.501-1.184-391.574c8.909-23.748,59.856-111.043,68.727-129.228c0.972-1.978,1.439-3.14,1.3-3.312
					L799.228,253.99z"/>
				<path style="fill:#EAE1DF;" d="M698.527,341.467c-2.445-8.53-4.843-17.412-6.43-26.193c-2.521-13.958-8.447-37.665-4.776-51.464
					l-9.148-8.36c-8.119,17.075-17.435,37.839-20.71,55.356c3.818-0.581,7.755-0.091,11.536,0.08
					c-4.146,5.305-9.58,9.651-9.502,15.971c0.071,5.89,5.046,15.078,8.94,19.934c8.191,10.21,22.724,16.421,34.817,18.39
					C706.03,359.247,700.271,347.546,698.527,341.467z"/>
				<g>
					<path style="fill:#2A0905;" d="M653.089,123.429h-26.026c-33.766,5.304-2.633,49.571,9.964,64.917
						C633.463,164.462,639.991,143.707,653.089,123.429z"/>
					<path style="fill:#FFA471;" d="M738.952,175.747c-2.351-22.789-5.33-51.268-21.128-69.871
						c-14.608-17.203-49.934-17.094-67.41-4.987c-5.76,3.99-15.463,13.093-16.907,20.124l-6.44,12.878
						c0.985,11.141-0.353,26.289,0.848,38.637c1.208,12.437,5.434,21.954,9.441,33.179c8.012,22.441,16.063,39.979,33.177,57.777
						c20.123,20.928,42.494,1.02,53.929-13.684C747,220.821,741.497,200.427,738.952,175.747z"/>
					<g>
						<path style="fill:#EEEEEE;" d="M710.557,181.493c-0.576,3.646-3.011,6.683-6.177,8.781c-6.908,4.579-17.254,4.699-19.225-3.06
							c0,0,2.463-6.965,8.586-8.415c0.919-0.218,1.833-0.425,2.73-0.606C701.267,177.244,705.756,177.2,710.557,181.493z"/>
						<path style="fill:#20181A;" d="M696.471,178.193c-0.898,0.181-1.811,0.388-2.73,0.606c-3.328,0.787-5.569,3.2-6.928,5.243
							c1.164,2.215,1.488,4.949,0.981,7.384c4.024,3.237,11.307,2.347,16.586-1.152c-0.619-1.832-1.488-3.724-2.604-5.586
							C700.217,182.087,698.375,179.875,696.471,178.193z"/>
						<path style="fill:#E07F4F;" d="M692.684,175.311c-6.126,1.451-7.527,11.901-7.527,11.901
							c4.832,5.787,23.103-1.62,25.403-5.718C704.854,176.391,698.534,173.923,692.684,175.311z"/>
					</g>
					<g>
						<path style="fill:#EEEEEE;" d="M659.051,193.169c0.057,3.427-1.592,6.247-4.02,8.172c-5.295,4.201-14.251,4.14-17.143-3.203
							c0,0,1.072-6.524,6.162-7.787c0.767-0.191,1.527-0.37,2.277-0.525C650.345,189.011,654.232,189.044,659.051,193.169z"/>
						<path style="fill:#20181A;" d="M646.326,189.826c-0.75,0.155-1.51,0.335-2.277,0.525c-2.765,0.687-4.342,2.924-5.209,4.825
							c1.348,2.107,2.046,4.689,1.978,6.975c3.983,3.117,10.167,2.4,14.212-0.81c-0.816-1.737-1.861-3.535-3.111-5.308
							C650.172,193.558,648.236,191.442,646.326,189.826z"/>
						<path style="fill:#E07F4F;" d="M642.602,187.046c-5.092,1.266-4.715,11.09-4.715,11.09c5.075,5.533,19.796-1.143,21.167-4.967
							C653.325,188.268,647.463,185.837,642.602,187.046z"/>
					</g>
					<path style="fill:#1B0C11;" d="M680.586,177.225c4.761-2.075,9.622-3.885,14.7-4.982c4.977-1.074,10.051-1.795,15.143-1.948
						c-0.036-2.223-0.069-4.445-0.093-6.668c-6.242-1.129-21.683,0.049-26.315,1.868c-6.068,2.383-5.474,5.781-3.818,11.913
						C680.331,177.346,680.457,177.28,680.586,177.225z"/>
					<path style="fill:#1B0C11;" d="M653.442,182.293c-3.841-0.528-7.685-0.773-11.5-0.272c-3.739,0.49-7.459,1.347-11.046,2.749
						c-0.532-2.126-1.068-4.252-1.61-6.374c4.07-2.974,15.13-6.547,18.814-6.224c4.831,0.424,5.269,3.839,5.653,10.178
						C653.651,182.33,653.545,182.307,653.442,182.293z"/>
					<path style="fill:#E07F4F;" d="M673.232,227.447c2.149-11.248-2.817-32.251-2.817-32.251
						c-0.044,6.636,0.029,13.247-0.649,19.827c-0.59,5.725-2.542,11.194-3.653,16.908c6.582,2.643,20.227-0.967,23.25-7.207
						C686.126,224.166,678.413,224.739,673.232,227.447z"/>
					<path style="fill:#E07F4F;" d="M660.603,238.962c0,0,0.155,0.13,0.446,0.372c0.294,0.231,0.729,0.558,1.313,0.923
						c0.582,0.364,1.319,0.748,2.179,1.13c0.868,0.371,1.87,0.723,2.981,1.031c2.219,0.613,4.897,1.037,7.729,1.066
						c0.706-0.001,1.422-0.014,2.134-0.073c0.725-0.057,1.385-0.159,2.183-0.285c1.41-0.257,2.93-0.614,4.377-1.066
						c1.463-0.438,2.902-0.969,4.297-1.551c1.394-0.588,2.742-1.227,4.018-1.903c2.552-1.353,4.812-2.852,6.6-4.323
						c0.893-0.736,1.678-1.458,2.329-2.145c0.643-0.691,1.161-1.338,1.562-1.897c0.385-0.567,0.677-1.032,0.847-1.365
						c0.177-0.335,0.27-0.513,0.27-0.513s-0.033,0.2-0.095,0.575c-0.077,0.372-0.201,0.924-0.458,1.599
						c-0.262,0.668-0.612,1.484-1.149,2.34c-0.524,0.862-1.188,1.797-2.007,2.734c-1.63,1.881-3.846,3.79-6.463,5.454
						c-1.305,0.834-2.711,1.611-4.191,2.297c-1.475,0.695-3.031,1.283-4.62,1.778c-1.606,0.479-3.201,0.858-4.895,1.085
						c-0.755,0.098-1.643,0.197-2.459,0.201c-0.825,0.015-1.634-0.008-2.421-0.081c-1.574-0.137-3.068-0.423-4.452-0.794
						c-1.386-0.377-2.658-0.849-3.79-1.377c-1.133-0.526-2.117-1.124-2.942-1.71c-0.828-0.582-1.477-1.187-1.974-1.709
						c-0.503-0.514-0.82-0.991-1.044-1.298C660.708,239.134,660.603,238.962,660.603,238.962z"/>
					<path style="fill:#521A0D;" d="M736.261,183.459c-4.073-11.339-21.783-42.808-27.6-52.398
						c-7.502-12.37-15.751-0.38-24.197,4.444c-54.985,31.389-68.396,2.442-71.889-8.05c-2.195-6.601,2.978-14.543,9.52-21.354
						c4.964-5.162,10.711-9.675,14.629-12.455c24.948-17.709,59.583-20.757,83.712-14.489c20.204,5.249,30.148,18.112,33.964,33.078
						C762.299,143.184,744.042,183.143,736.261,183.459z"/>
					<path style="fill:#2A0905;" d="M736.261,183.459c-4.073-11.339-21.783-42.808-27.6-52.398
						c-7.502-12.37-15.751-0.38-24.197,4.444c-54.985,31.389-68.396,2.442-71.889-8.05c-2.195-6.601,2.978-14.543,9.52-21.354
						c0.875,2.845,2.619,5.871,5.597,9.273c9.853,11.27,24.975,8.893,38.01,3.44c11.269-4.712,20.291-12.762,33.004-12.112
						c12.198,0.623,20.581,5.49,29.01,14.027c0.586-5.962-2.565-11.999-6.193-16.679c6.875,0.757,17.071,6.022,19.84,12.246
						c2.286-3.794,1.867-9.46,0.123-13.694c4.627,4.303,7.621,9.117,10.122,14.946c1.101-1.708,2.017-3.483,2.79-5.313
						C762.299,143.184,744.042,183.143,736.261,183.459z"/>
					<g>
						<path style="fill:#FFA471;" d="M733.482,176.171c-0.746,2.528-0.995,10.493-0.995,10.493
							c-3.215,7.887,1.8,23.424,12.452,19.494c6.362-2.348,10.678-14.954,12.399-20.995
							C764.319,160.666,739.331,156.305,733.482,176.171z"/>
						<path style="fill:#E07F4F;" d="M736.939,184.009c3.678-3.089,7.573,0.49,6.91,4.883c-0.544,3.616-8.336,3.903-8.336,3.903
							c3.389,3.985,11.686,3.6,14.069-3.397c1.807-5.3-3.419-16.156-9.573-10.515c0.09-4.906,7.684-12.449,12.172-7.598
							C744.897,162.04,732.716,175.036,736.939,184.009z"/>
					</g>
				</g>
				<path style="fill:#EAE1DF;" d="M718.664,411.576c0,4.357-2.494,7.889-5.568,7.889c-3.076,0-5.57-3.532-5.57-7.889
					c0-4.357,2.493-7.889,5.57-7.889C716.17,403.687,718.664,407.219,718.664,411.576z"/>
				<path style="fill:#EAE1DF;" d="M718.664,560.262c0,4.356-2.494,7.888-5.568,7.888c-3.076,0-5.57-3.532-5.57-7.888
					c0-4.357,2.493-7.889,5.57-7.889C716.17,552.373,718.664,555.905,718.664,560.262z"/>
				<path style="fill:#EAE1DF;" d="M718.664,680.91c0,4.356-2.494,7.888-5.568,7.888c-3.076,0-5.57-3.532-5.57-7.888
					c0-4.357,2.493-7.889,5.57-7.889C716.17,673.021,718.664,676.553,718.664,680.91z"/>
				<g>
					<polygon style="fill:#171E21;" points="582.828,496.887 533.628,412.134 538.604,407.329 690.986,411.672 741.351,553.265 
						735.244,561.129 					"/>
					<polygon style="fill:#3A4950;" points="610.508,558.771 533.628,412.134 687.799,417.944 735.244,561.129 					"/>
				</g>
				<path style="fill:#EAE1DF;" d="M857.3,575.221c-41.606,13.789-118.746-15.4-143.895-32.59l143.427-5.585
					C856.95,549.561,857.111,562.343,857.3,575.221z"/>
				<g>
					<g>
						<g>
							<path style="fill:#FFA471;" d="M688.585,501.987c-1.479,4.147-0.448,16.851-4.314,20.317
								c-2.73,2.441-56.137-2.284-65.56-5.092c-7.699-2.293-14.857-3.308-21.979-5.854c-2.336-0.832-4.663-1.829-7.008-3.089
								c-8.059-4.331-12.687-11.882-19.705-17.884c-4.847-4.138-8.67-22.6-9.125-25.907c-0.036-0.306-0.053-0.482-0.036-0.507
								c0.132,0.166,0.263,0.324,0.395,0.49c4.243,5.25,8.925,10.657,11.856,14.095c0.69,0.814,1.671,1.496,2.835,2.074
								c4.287,2.126,11.085,2.835,15.241,3.176c10.413,0.857,17.228,1.662,26.836,3.499c-1.164-4.663-27.072-20.894-19.835-26.835
								c1.557-1.278,5.932,0.787,8.172,1.75c5.022,2.17,12.643,9.633,15.793,10.928c7.699,3.176,16.011,1.488,22.818,6.274
								c5.469,3.85,11.795,8.916,13.808,13.308L688.585,501.987z"/>
						</g>
					</g>
				</g>
				<path style="fill:#FFFFFF;" d="M861.234,523.15c-10.365-39.831-44.5-37.727-79.1-33.957
					c-17.941,1.955-97.243,13.478-105.601,3.945l-11.958,44.534c4.522-0.027,88.874,17.729,124.624,21.481
					c19.383,2.034,37.043,1.976,56.701,1.882c12.199-0.059,24.671-5.17,26.455-17.294
					C873.604,535.261,863.231,530.825,861.234,523.15z"/>
				<path style="fill:#FFFFFF;" d="M874.579,300.314c-7.801-15.57-26.469-32.152-40.016-16.673
					c-17.911,20.465-11.905,55.856-22.074,75.389l-4.58,37.782c-2.284,19.327,1.279,42.139,1.149,61.764
					c-0.145,22.244,4.965,45.824,12.875,66.463c4.695,12.256,23.889,36.355,39.812,30.684c14.636-5.214,15.182-36.761,15.747-49.257
					c0.891-19.708,1.638-39.591,2.605-59.312c1.369-27.914,3.325-55.834,3.375-83.799
					C883.508,342.039,884.271,319.658,874.579,300.314z"/>
				<path style="fill:#EAE1DF;" d="M851.258,515.617c-1.849-14.066-13.82-35.648-27.81-40.792l7.781-140.054
					c-3.334,20.008-8.892,45.573-10.004,75.585c-0.824,22.244-10.063,62.193-14.45,67.805c-7.101,9.082-83.209,15.016-96.704,18.896
					c20.872,2.235,101.971-9.192,108.653-5.279c6.255,3.663,11.999,16.527,15.614,22.731c-1.105-9.58-5.718-18.597-10.726-27.284
					C833.615,493.466,847.878,503.401,851.258,515.617z"/>
				<g>
					<path style="fill:#EAE1DF;" d="M776.866,646.433c0.462,0.099,0.93,0.193,1.397,0.288c0.071-0.674,0.157-1.328,0.271-1.955
						L776.866,646.433z"/>
					<path style="fill:#EAE1DF;" d="M778.263,646.721c-1.847,17.86,11.232,51.3,33.256,55.104
						c29.547,5.104,29.487-37.055,31.709-56.893C824.518,651.626,798.507,650.833,778.263,646.721z"/>
				</g>
				<g>
					<path style="fill:#EAE1DF;" d="M651.464,638.262c-1.512,13.517-1.962,37.387-11.437,49.62
						c-0.5-14.962-0.984-30.473-1.445-46.307C643.128,640.785,647.463,639.695,651.464,638.262z"/>
				</g>
			</g>
		</g>
	</g>
</g>
</svg>
